<svg width="28" height="28" viewBox="0 0 28 28" fill="none" xmlns="http://www.w3.org/2000/svg">
<path d="M23.3333 13.361V9.89464C23.3333 9.25031 22.811 8.72798 22.1667 8.72798H20.9136M23.3333 13.361H18.8539C18.2096 13.361 17.6872 13.8833 17.6872 14.5277V15.8454C17.6872 16.4897 18.2096 17.012 18.8539 17.012H23.3333M23.3333 13.361V17.012M23.3333 17.012V19.8332C23.3333 20.4775 22.811 20.9999 22.1667 20.9999L15.75 20.9999M7 8.72798H20.9136M7 8.72798L19.3365 4.09246C20.0994 3.80582 20.9136 4.36967 20.9136 5.18457L20.9136 8.72798M7 8.72798V12.8332M6.17516 19.8332H9.92039M9.92039 19.8332L8.49363 21.3888M9.92039 19.8332L8.49363 18.2777M13.1306 19.8332C13.1306 22.4105 10.9747 24.4999 8.31529 24.4999C5.65588 24.4999 3.5 22.4105 3.5 19.8332C3.5 17.2559 5.65588 15.1665 8.31529 15.1665C10.9747 15.1665 13.1306 17.2559 13.1306 19.8332Z" stroke="#030319" stroke-linecap="round" stroke-linejoin="round"/>
</svg>
